<mxfile host="app.diagrams.net" modified="2023-02-23T08:59:10.759Z" agent="5.0 (Windows NT 10.0; Win64; x64) AppleWebKit/537.36 (KHTML, like Gecko) Chrome/109.0.0.0 Safari/537.36" etag="9ni2uzDR0WFZEXf_Q4MM" version="20.8.20" type="github">
  <diagram name="第 1 页" id="YabfF1WGnytk5WfyqoqI">
    <mxGraphModel dx="915" dy="539" grid="1" gridSize="10" guides="1" tooltips="1" connect="1" arrows="1" fold="1" page="1" pageScale="1" pageWidth="827" pageHeight="1169" math="0" shadow="0">
      <root>
        <mxCell id="0" />
        <mxCell id="1" parent="0" />
        <mxCell id="lBMhMOdnW-QwLkUtx3VK-2" value="" style="rounded=0;whiteSpace=wrap;html=1;" vertex="1" parent="1">
          <mxGeometry x="270" y="110" width="310" height="130" as="geometry" />
        </mxCell>
        <mxCell id="lBMhMOdnW-QwLkUtx3VK-3" value="&lt;font style=&quot;font-size: 18px;&quot;&gt;Infimum&lt;/font&gt;" style="rounded=0;whiteSpace=wrap;html=1;" vertex="1" parent="1">
          <mxGeometry x="270" y="110" width="100" height="30" as="geometry" />
        </mxCell>
        <mxCell id="lBMhMOdnW-QwLkUtx3VK-4" value="&lt;font style=&quot;font-size: 18px;&quot;&gt;Supremum&lt;/font&gt;" style="rounded=0;whiteSpace=wrap;html=1;" vertex="1" parent="1">
          <mxGeometry x="480" y="110" width="100" height="30" as="geometry" />
        </mxCell>
        <mxCell id="lBMhMOdnW-QwLkUtx3VK-15" value="&lt;font style=&quot;font-size: 18px;&quot;&gt;Page 3&lt;/font&gt;" style="text;html=1;strokeColor=none;fillColor=none;align=center;verticalAlign=middle;whiteSpace=wrap;rounded=0;" vertex="1" parent="1">
          <mxGeometry x="387.5" y="110" width="75" height="30" as="geometry" />
        </mxCell>
        <mxCell id="lBMhMOdnW-QwLkUtx3VK-48" value="" style="endArrow=classic;html=1;strokeColor=default;fontSize=18;exitX=0.25;exitY=1;exitDx=0;exitDy=0;entryX=0;entryY=0.5;entryDx=0;entryDy=0;edgeStyle=orthogonalEdgeStyle;curved=1;" edge="1" parent="1" source="lBMhMOdnW-QwLkUtx3VK-3" target="lBMhMOdnW-QwLkUtx3VK-37">
          <mxGeometry width="50" height="50" relative="1" as="geometry">
            <mxPoint x="350" y="190" as="sourcePoint" />
            <mxPoint x="400" y="140" as="targetPoint" />
          </mxGeometry>
        </mxCell>
        <mxCell id="lBMhMOdnW-QwLkUtx3VK-37" value="" style="rounded=0;whiteSpace=wrap;html=1;container=0;" vertex="1" parent="1">
          <mxGeometry x="350" y="180" width="40" height="50" as="geometry" />
        </mxCell>
        <mxCell id="lBMhMOdnW-QwLkUtx3VK-38" value="&lt;font style=&quot;font-size: 18px;&quot;&gt;&amp;gt;=0&lt;/font&gt;" style="text;html=1;strokeColor=none;fillColor=none;align=center;verticalAlign=middle;whiteSpace=wrap;rounded=0;container=0;" vertex="1" parent="1">
          <mxGeometry x="350" y="180" width="40" height="25" as="geometry" />
        </mxCell>
        <mxCell id="lBMhMOdnW-QwLkUtx3VK-39" value="&lt;font style=&quot;font-size: 18px;&quot;&gt;4&lt;/font&gt;" style="text;html=1;strokeColor=none;fillColor=none;align=center;verticalAlign=middle;whiteSpace=wrap;rounded=0;container=0;" vertex="1" parent="1">
          <mxGeometry x="350" y="205" width="40" height="25" as="geometry" />
        </mxCell>
        <mxCell id="lBMhMOdnW-QwLkUtx3VK-50" value="" style="endArrow=classic;html=1;strokeColor=default;fontSize=18;curved=1;exitX=1;exitY=0.5;exitDx=0;exitDy=0;entryX=0.75;entryY=1;entryDx=0;entryDy=0;edgeStyle=orthogonalEdgeStyle;" edge="1" parent="1" source="lBMhMOdnW-QwLkUtx3VK-12" target="lBMhMOdnW-QwLkUtx3VK-4">
          <mxGeometry width="50" height="50" relative="1" as="geometry">
            <mxPoint x="500" y="190" as="sourcePoint" />
            <mxPoint x="550" y="140" as="targetPoint" />
          </mxGeometry>
        </mxCell>
        <mxCell id="lBMhMOdnW-QwLkUtx3VK-12" value="" style="rounded=0;whiteSpace=wrap;html=1;" vertex="1" parent="1">
          <mxGeometry x="460" y="180" width="40" height="50" as="geometry" />
        </mxCell>
        <mxCell id="lBMhMOdnW-QwLkUtx3VK-13" value="&lt;font style=&quot;font-size: 18px;&quot;&gt;&amp;gt;=4&lt;/font&gt;" style="text;html=1;strokeColor=none;fillColor=none;align=center;verticalAlign=middle;whiteSpace=wrap;rounded=0;" vertex="1" parent="1">
          <mxGeometry x="460" y="180" width="40" height="25" as="geometry" />
        </mxCell>
        <mxCell id="lBMhMOdnW-QwLkUtx3VK-14" value="&lt;font style=&quot;font-size: 18px;&quot;&gt;5&lt;/font&gt;" style="text;html=1;strokeColor=none;fillColor=none;align=center;verticalAlign=middle;whiteSpace=wrap;rounded=0;" vertex="1" parent="1">
          <mxGeometry x="460" y="205" width="40" height="25" as="geometry" />
        </mxCell>
        <mxCell id="lBMhMOdnW-QwLkUtx3VK-51" value="" style="endArrow=classic;html=1;strokeColor=default;fontSize=18;curved=1;exitX=1;exitY=0.5;exitDx=0;exitDy=0;entryX=0;entryY=0.5;entryDx=0;entryDy=0;" edge="1" parent="1" source="lBMhMOdnW-QwLkUtx3VK-37" target="lBMhMOdnW-QwLkUtx3VK-12">
          <mxGeometry width="50" height="50" relative="1" as="geometry">
            <mxPoint x="340" y="160" as="sourcePoint" />
            <mxPoint x="390" y="110" as="targetPoint" />
          </mxGeometry>
        </mxCell>
        <mxCell id="lBMhMOdnW-QwLkUtx3VK-52" value="Next" style="text;html=1;strokeColor=none;fillColor=none;align=center;verticalAlign=middle;whiteSpace=wrap;rounded=0;fontSize=18;" vertex="1" parent="1">
          <mxGeometry x="395" y="175" width="60" height="30" as="geometry" />
        </mxCell>
        <mxCell id="lBMhMOdnW-QwLkUtx3VK-53" value="" style="rounded=0;whiteSpace=wrap;html=1;" vertex="1" parent="1">
          <mxGeometry x="40" y="330" width="310" height="130" as="geometry" />
        </mxCell>
        <mxCell id="lBMhMOdnW-QwLkUtx3VK-54" value="&lt;font style=&quot;font-size: 18px;&quot;&gt;Infimum&lt;/font&gt;" style="rounded=0;whiteSpace=wrap;html=1;" vertex="1" parent="1">
          <mxGeometry x="40" y="330" width="100" height="30" as="geometry" />
        </mxCell>
        <mxCell id="lBMhMOdnW-QwLkUtx3VK-55" value="&lt;font style=&quot;font-size: 18px;&quot;&gt;Supremum&lt;/font&gt;" style="rounded=0;whiteSpace=wrap;html=1;" vertex="1" parent="1">
          <mxGeometry x="250" y="330" width="100" height="30" as="geometry" />
        </mxCell>
        <mxCell id="lBMhMOdnW-QwLkUtx3VK-56" value="&lt;font style=&quot;font-size: 18px;&quot;&gt;Page 3&lt;/font&gt;" style="text;html=1;strokeColor=none;fillColor=none;align=center;verticalAlign=middle;whiteSpace=wrap;rounded=0;" vertex="1" parent="1">
          <mxGeometry x="157.5" y="330" width="75" height="30" as="geometry" />
        </mxCell>
        <mxCell id="lBMhMOdnW-QwLkUtx3VK-57" value="" style="endArrow=classic;html=1;strokeColor=default;fontSize=18;exitX=0.25;exitY=1;exitDx=0;exitDy=0;entryX=0;entryY=0.5;entryDx=0;entryDy=0;edgeStyle=orthogonalEdgeStyle;curved=1;" edge="1" parent="1" source="lBMhMOdnW-QwLkUtx3VK-54" target="lBMhMOdnW-QwLkUtx3VK-58">
          <mxGeometry width="50" height="50" relative="1" as="geometry">
            <mxPoint x="120" y="410" as="sourcePoint" />
            <mxPoint x="170" y="360" as="targetPoint" />
          </mxGeometry>
        </mxCell>
        <mxCell id="lBMhMOdnW-QwLkUtx3VK-58" value="" style="rounded=0;whiteSpace=wrap;html=1;container=0;" vertex="1" parent="1">
          <mxGeometry x="120" y="400" width="40" height="50" as="geometry" />
        </mxCell>
        <mxCell id="lBMhMOdnW-QwLkUtx3VK-59" value="&lt;font style=&quot;font-size: 18px;&quot;&gt;&amp;gt;=0&lt;/font&gt;" style="text;html=1;strokeColor=none;fillColor=none;align=center;verticalAlign=middle;whiteSpace=wrap;rounded=0;container=0;" vertex="1" parent="1">
          <mxGeometry x="120" y="400" width="40" height="25" as="geometry" />
        </mxCell>
        <mxCell id="lBMhMOdnW-QwLkUtx3VK-60" value="&lt;font style=&quot;font-size: 18px;&quot;&gt;4&lt;/font&gt;" style="text;html=1;strokeColor=none;fillColor=none;align=center;verticalAlign=middle;whiteSpace=wrap;rounded=0;container=0;" vertex="1" parent="1">
          <mxGeometry x="120" y="425" width="40" height="25" as="geometry" />
        </mxCell>
        <mxCell id="lBMhMOdnW-QwLkUtx3VK-61" value="" style="endArrow=classic;html=1;strokeColor=default;fontSize=18;curved=1;exitX=1;exitY=0.5;exitDx=0;exitDy=0;entryX=0.75;entryY=1;entryDx=0;entryDy=0;edgeStyle=orthogonalEdgeStyle;" edge="1" parent="1" source="lBMhMOdnW-QwLkUtx3VK-62" target="lBMhMOdnW-QwLkUtx3VK-55">
          <mxGeometry width="50" height="50" relative="1" as="geometry">
            <mxPoint x="270" y="410" as="sourcePoint" />
            <mxPoint x="320" y="360" as="targetPoint" />
          </mxGeometry>
        </mxCell>
        <mxCell id="lBMhMOdnW-QwLkUtx3VK-62" value="" style="rounded=0;whiteSpace=wrap;html=1;" vertex="1" parent="1">
          <mxGeometry x="230" y="400" width="40" height="50" as="geometry" />
        </mxCell>
        <mxCell id="lBMhMOdnW-QwLkUtx3VK-63" value="&lt;font style=&quot;font-size: 18px;&quot;&gt;&amp;gt;=4&lt;/font&gt;" style="text;html=1;strokeColor=none;fillColor=none;align=center;verticalAlign=middle;whiteSpace=wrap;rounded=0;" vertex="1" parent="1">
          <mxGeometry x="230" y="400" width="40" height="25" as="geometry" />
        </mxCell>
        <mxCell id="lBMhMOdnW-QwLkUtx3VK-64" value="&lt;font style=&quot;font-size: 18px;&quot;&gt;5&lt;/font&gt;" style="text;html=1;strokeColor=none;fillColor=none;align=center;verticalAlign=middle;whiteSpace=wrap;rounded=0;" vertex="1" parent="1">
          <mxGeometry x="230" y="425" width="40" height="25" as="geometry" />
        </mxCell>
        <mxCell id="lBMhMOdnW-QwLkUtx3VK-65" value="" style="endArrow=classic;html=1;strokeColor=default;fontSize=18;curved=1;exitX=1;exitY=0.5;exitDx=0;exitDy=0;entryX=0;entryY=0.5;entryDx=0;entryDy=0;" edge="1" parent="1" source="lBMhMOdnW-QwLkUtx3VK-58" target="lBMhMOdnW-QwLkUtx3VK-62">
          <mxGeometry width="50" height="50" relative="1" as="geometry">
            <mxPoint x="110" y="380" as="sourcePoint" />
            <mxPoint x="160" y="330" as="targetPoint" />
          </mxGeometry>
        </mxCell>
        <mxCell id="lBMhMOdnW-QwLkUtx3VK-66" value="Next" style="text;html=1;strokeColor=none;fillColor=none;align=center;verticalAlign=middle;whiteSpace=wrap;rounded=0;fontSize=18;" vertex="1" parent="1">
          <mxGeometry x="165" y="395" width="60" height="30" as="geometry" />
        </mxCell>
        <UserObject label="https://blog.jcole.us/2013/01/10/btree-index-structures-in-innodb/" link="https://blog.jcole.us/2013/01/10/btree-index-structures-in-innodb/" id="lBMhMOdnW-QwLkUtx3VK-67">
          <mxCell style="text;whiteSpace=wrap;html=1;fontSize=18;" vertex="1" parent="1">
            <mxGeometry x="310" y="620" width="560" height="50" as="geometry" />
          </mxCell>
        </UserObject>
      </root>
    </mxGraphModel>
  </diagram>
</mxfile>
